<?xml version="1.0" encoding="utf-8"?>
<!-- Generator: Adobe Illustrator 19.0.0, SVG Export Plug-In . SVG Version: 6.00 Build 0)  -->
<svg version="1.1" id="stranger" xmlns="http://www.w3.org/2000/svg" xmlns:xlink="http://www.w3.org/1999/xlink" x="0px" y="0px"
	 viewBox="0 0 508.2 407.4" style="enable-background:new 0 0 508.2 407.4;" xml:space="preserve">
<style type="text/css">
	.st0{fill:#C9BBB3;stroke:#DDCDC3;stroke-miterlimit:10;}
	.st1{fill:#DDCDC3;stroke:#DDCDC3;stroke-miterlimit:10;}
	.st2{fill:#EAD9CA;stroke:#EAD9CA;stroke-miterlimit:10;}
	.st3{fill:#F7E4D2;stroke:#DDCDC3;stroke-miterlimit:10;}
	.st4{fill:#EAD9CA;stroke:#DDCDC3;stroke-miterlimit:10;}
	.st5{fill:#C9BBB3;stroke:#C9BBB3;stroke-miterlimit:10;}
	.st6{fill:#F7E4D2;}
	.st7{fill:none;stroke:#DDCDC3;stroke-miterlimit:10;}
	.st8{fill:#F7E4D2;stroke:#C9BBB3;stroke-miterlimit:10;}
	.st9{fill:none;stroke:#C9BBB3;stroke-width:2;stroke-linecap:round;stroke-miterlimit:10;}
	.st10{fill:#FFFFFF;}
</style>
<g id="hand-left">
	<g id="hand-left-bottom">
		<polygon id="XMLID_303_" class="st0" points="324,227.4 399.7,184.6 411.5,191.3 336.5,234.6 		"/>
		<polygon id="XMLID_302_" class="st1" points="336.5,234.6 336.5,249.1 411.5,205.8 411.5,191.3 		"/>
		<polygon id="XMLID_301_" class="st1" points="336.5,249.1 336.5,234.6 324,227.4 324,241.9 		"/>
	</g>
	<g id="hand-left-top">
		<polygon id="XMLID_299_" class="st1" points="336.5,162.9 324,170.1 324,256.7 336.5,249.5 		"/>
		<polygon id="XMLID_298_" class="st1" points="324,170.1 311.5,162.9 311.5,249.5 324,256.7 		"/>
		<polygon id="XMLID_297_" class="st2" points="324,155.7 336.5,162.9 324,170.1 311.5,162.9 		"/>
	</g>
</g>
<g id="body">
	<polygon id="body-1" class="st3" points="299,285.6 399,199 324,155.7 224,242.3 	"/>
	<polygon id="body-2" class="st1" points="299,285.6 299,314.5 224,271.2 224,242.3 	"/>
	<polygon id="body-3" class="st4" points="299,285.6 399,199 399,227.9 299,314.5 	"/>
</g>
<g id="foot-left">
	<g id="foot-top_1_">
		<polygon id="foot-1_3_" class="st3" points="224,242.3 124,300 149,314.5 249,256.7 		"/>
		<polygon id="foot-2_3_" class="st4" points="149,314.5 149,343.3 249,285.1 249,256.7 		"/>
		<polygon id="foot-3_3_" class="st5" points="124,300 149,314.5 149,343.3 124,328.9 		"/>
	</g>
	<g id="foot-bottom_1_">
		<polygon id="foot-1_2_" class="st4" points="149.4,199 124.4,213.4 124.4,357.8 149.4,343.3 		"/>
		<polygon id="foot-2_2_" class="st0" points="99.4,199 99.4,343.3 124.4,357.8 124.4,213.4 		"/>
		<polygon id="foot-3_2_" class="st3" points="149.4,199 124.4,184.6 49.4,227.9 74.4,242.3 		"/>
		<polygon id="foot-5_1_" class="st1" points="74.4,242.3 74.4,271.2 48.6,256.2 49.4,227.9 		"/>
		<polygon id="foot-4_1_" class="st4" points="74.4,271.2 124.4,242.3 124.4,213.4 74.4,242.3 		"/>
	</g>
</g>
<g id="head">
	<path id="XMLID_259_" class="st6" d="M374,100.9c-27.5,0-50,19.5-50,43.3s22.5,43.3,50,43.3s50-19.5,50-43.3S401.5,100.9,374,100.9
		z"/>
	<path id="XMLID_258_" class="st7" d="M374,100.9c-27.5,0-50,19.5-50,43.3s22.5,43.3,50,43.3s50-19.5,50-43.3S401.5,100.9,374,100.9
		z"/>
</g>
<g id="foot-right">
	<g id="foot-top">
		<polygon id="foot-1_1_" class="st4" points="299,285.6 199,343.3 199,372.2 299,314.5 		"/>
		<polygon id="foot-2_1_" class="st3" points="274,271.2 174,328.9 199,343.3 299,285.6 		"/>
		<polygon id="foot-3_1_" class="st1" points="174,328.9 199,343.3 199,372.2 174,357.8 		"/>
	</g>
	<g id="foot-bottom">
		<polygon id="foot-1" class="st4" points="199.4,227.9 174.4,242.3 174.4,386.6 199.4,372.2 		"/>
		<polygon id="foot-2" class="st0" points="149.4,227.9 149.4,372.2 174.4,386.6 174.4,242.3 		"/>
		<polygon id="foot-3" class="st3" points="199.4,227.9 174.4,213.4 99.4,256.7 124.4,271.2 		"/>
		<polygon id="foot-5" class="st1" points="124.4,271.2 124.4,300 98.6,285.1 99.4,256.7 		"/>
		<polygon id="foot-4" class="st4" points="124.4,300 174.4,271.2 174.4,242.3 124.4,271.2 		"/>
	</g>
</g>
<g id="hand-right">
	<g id="hand_x5F_right_x5F_bottom">
		<polygon id="XMLID_266_" class="st4" points="386.5,263.5 462.2,220.6 474,227.4 399,270.7 		"/>
		<polygon id="XMLID_265_" class="st3" points="399,270.7 399,285.2 474,241.9 474,227.4 		"/>
		<polygon id="XMLID_264_" class="st1" points="399,285.2 399,270.7 386.5,263.5 386.5,278 		"/>
	</g>
	<g id="hand_x5F_right_x5F_top">
		<polygon id="XMLID_262_" class="st3" points="399,199 386.5,206.2 386.5,292.8 399,285.6 		"/>
		<polygon id="XMLID_261_" class="st1" points="386.5,206.2 374,199 374,285.6 386.5,292.8 		"/>
		<polygon id="XMLID_260_" class="st4" points="386.5,191.8 399,199 386.5,206.2 374,199 		"/>
	</g>
</g>
<g id="ass">
	<g id="ass-right">
		<polygon id="ass-2_1_" class="st4" points="299,257.2 274,271.2 274,300 299,285.6 		"/>
		<polygon id="ass-1_1_" class="st3" points="299,257.2 274,242.3 249,256.7 274,271.2 		"/>
		<polygon id="ass-3_1_" class="st1" points="274,271.2 274,300 249,285.1 249,256.7 		"/>
	</g>
	<g id="ass-left">
		<polygon id="ass-2" class="st4" points="249,228.3 224,242.3 224,271.2 249,256.7 		"/>
		<polygon id="ass-1" class="st3" points="249,228.3 224,213.4 199,227.9 224,242.3 		"/>
		<polygon id="ass-3" class="st1" points="224,242.3 224,271.2 199,256.2 199,227.9 		"/>
	</g>
</g>
<g id="face">
	<g id="eyes">
		<g id="eyes-left">
			<ellipse id="eyeborder_1_" class="st8" cx="367.7" cy="137.1" rx="10" ry="5"/>
			<circle id="eyeball_1_" class="st5" cx="367.7" cy="135.7" r="3.6"/>
		</g>
		<g id="eyes-right">
			<ellipse id="eyeborder" class="st8" cx="405.4" cy="137.1" rx="10" ry="5"/>
			<circle id="eyeball" class="st5" cx="405.4" cy="135.7" r="3.6"/>
		</g>
	</g>
	<path id="mouth" class="st9" d="M374,155c0,0,12.5,3,25,0"/>
</g>
<g id="words">
	<path id="XMLID_4_" class="st10" d="M329.2,47.9L329.2,47.9l-0.2,1l0,0.6l0.1,0.1l-0.3,0.6l0.1,0.4l-0.3,0.5
		c-0.1,0.2-0.1,0.4-0.2,0.5c0.1,0.1,0.2,0.2,0.2,0.3c0,0.1-0.1,0.3-0.2,0.4l0.3,0.9h-0.3l0,0.1l0.2,0.4l-0.2,0.7h-0.1l-0.1,0.5
		c0.1,0,0.1,0,0.2,0l-0.1,0.5l0.2,0.5l-0.2,0.4l0,0.8l-0.1,0.3c0.2,0.2,0.2,0.3,0.2,0.5c0,0.1,0,0.2-0.1,0.3
		c-0.1,0.1-0.1,0.2-0.1,0.2c0.3,0.2,0.5,0.4,0.7,0.6l-0.3,0.3l0.4,0.2c-0.1,0.7-0.3,1-0.8,1s-0.7-0.2-0.9-0.6l-0.1-0.2
		c-0.3-0.4-0.4-0.7-0.4-0.8l-0.5-0.5l0.2-0.3l-0.2-0.2v-0.5l0-0.2c0-0.2,0-0.3,0-0.4s0-0.2,0.1-0.3l-0.1-0.2l0-0.8l0.1-0.1v-1.5
		l0.2-1.2l-0.2-1.3l0.2-0.1l-0.2-0.1l0.2-0.5v-0.2l-0.2,0l0.2-0.6c-0.2-0.2-0.4-0.6-0.4-1h0.3l0.3-0.8l0.1,0.1l0.2-0.4l-0.1,0.2
		v-0.7h0.4l0.1-0.2l0.5-0.2c0.4,0,0.8,0.1,1,0.2c0.3,0.2,0.4,0.5,0.4,0.9V47.9z"/>
	<path id="XMLID_6_" class="st10" d="M355.2,57.8c0,0.5-0.3,0.7-0.9,0.7c-0.2,0.1-0.4,0.2-0.6,0.2l-1,0.1h-0.5l-0.4,0.3h-0.6
		l-0.2,0.2h-1.3l-0.7,0.4H349c-0.1,0-0.2,0-0.3,0l-0.1,0.1c-0.2,0.1-0.3,0.1-0.5,0.1c-0.1,0-0.2,0-0.4-0.1l-0.6,0.1l-0.6,0l-0.6,0.2
		h-1.5l-0.9-0.2h-0.7l-0.2-0.2l-0.5,0c-0.8-0.6-1.3-1.2-1.6-1.8c-0.1-0.4-0.3-0.8-0.4-1.2l-0.2-0.5l0.3-0.9l-0.2-1.1l0.2-0.2l0.1-1
		l0.2-0.5l0.1-0.8v-1.6l0.2-0.4l0.1-0.2v-0.9l0.2-0.2l-0.2-0.2l0.3-0.9l0.1,0l-0.2-0.4l0.6-0.2c0.3-0.2,0.5-0.4,0.7-0.4l0.7,0.1
		l0.6,1.2l-0.4,0.3c0.1,0.1,0.1,0.3,0.1,0.4l-0.3,0.8V50l-0.3,0.8l-0.1,0.8l-0.4,1.6v0.2c0,0.2,0,0.4-0.1,0.5l-0.1,0.4l-0.1,0.5
		l0.1,0.8l-0.1,0.2l0.2,1.1l0.4,0.8v0.1l1,0.6l1.4,0.1h0.4l1-0.2h0.7l0.2-0.1h1.4l0.3-0.3h1l0.5-0.2l1.7-0.1l0.7-0.2
		c0.2,0,0.4,0,0.6,0l0.3-0.2c0.2-0.1,0.4-0.1,0.6-0.1C355,57.2,355.2,57.4,355.2,57.8z"/>
	<path id="XMLID_8_" class="st10" d="M364.8,54.1l-0.2,0.5c0,0.5,0,0.8-0.1,1.1l-0.2,0.3v0.3l-0.1,0.2l-0.1,0.4l-0.3,0.3l-0.2,0.7
		l-0.2,0.1l-0.1,0.3l-0.3,0.2l-0.2,0.4l-0.3,0.2l0,0.3l-0.5,0.2c-0.2,0.3-0.5,0.5-0.8,0.6l-0.1,0c-0.2,0.4-0.6,0.5-1,0.5
		c-0.2,0.1-0.4,0.2-0.6,0.2l-0.3,0.2l-0.3,0.1l-0.3,0.3h-0.3l-0.4,0.1l-0.4-0.2l-1.1-0.1l-0.4-0.6l-0.6-0.6l0.1-0.4l-0.4-0.9
		l0.1-0.3l-0.1-0.6l0.1-0.4c0-0.2,0-0.4,0-0.5c0-0.3,0.1-0.6,0.3-0.7c0-0.2,0.1-0.5,0.4-0.9h0.1l-0.1-0.2l0.1-0.4v-0.4
		c0.1-0.2,0.2-0.3,0.2-0.3l-0.1-0.4v-0.1c0.1-0.2,0.2-0.5,0.2-0.8l0.5-0.8c0.1-0.1,0.1-0.1,0.2-0.2l0-0.1h0.1l0.4-0.4l0-0.6l0.7-0.2
		c0.2-0.2,0.4-0.4,0.5-0.8h0.3c0.2-0.1,0.4-0.2,0.5-0.2s0.3,0,0.4,0.1l0.3,0l0.7-0.3l0.4,0.3l0.3,0.2h0.2l0.4,0.2h0.2
		c0.2,0.2,0.5,0.5,0.8,0.9l0.1,0.1l0.2,0.1l0.5,0.7l0.5,1.2v0.3L364.8,54.1z M363.1,54.8l0-0.1c-0.1-0.1-0.2-0.3-0.2-0.4l0.1-0.1
		l-0.2-0.5l0.1-0.5l-0.1-0.1c-0.2-0.2-0.3-0.3-0.4-0.4c-0.2-0.1-0.2-0.2-0.2-0.5l-0.2,0l-0.3-0.5l-0.2-0.2l-0.5-0.2l-0.2-0.1
		c-0.1,0-0.2,0-0.2-0.1l-0.5,0.6l-0.3,0.7l-0.5,0.3l-0.1,0.3l-0.3,0.1l-0.1,0.7l-0.3,0.2c-0.1,0.2-0.1,0.5-0.1,0.7l-0.4,0.4l0.1,0.1
		c0,0.2-0.1,0.4-0.3,0.5c-0.1,0.2-0.1,0.3-0.2,0.5v0.2v0.1v0.3l-0.3,0.7l0.1,0.1v0.7l-0.1,0.4l0,0.4l0.2,0.3l0.4,0.1l0.1,0.1h0.2
		h0.7l0.1-0.3h0.1c0.1,0,0.2,0,0.2,0.1l0.2-0.1l0.2,0.1l0.3-0.2l0.1-0.1l0.2-0.1c0.1-0.2,0.4-0.4,0.9-0.6l0.1-0.1l0.5-0.4l0.3-0.4
		l0.4-0.2l0-0.1l0.1-0.3v-0.3l0.3-0.3l0.1-0.2l0.1-0.2c-0.1-0.2-0.1-0.4-0.1-0.4c0-0.2,0.1-0.3,0.2-0.5L363.1,54.8z"/>
	<path id="XMLID_11_" class="st10" d="M379,48.2l-0.3,0.4l0.1,0.5l-0.4,0.2l-0.1,0.5l-0.2,0.2l-0.1,0.6h-0.1
		c-0.1,0.2-0.2,0.4-0.4,0.6l-0.2,0.8l-0.2,0.4c0,0.1,0,0.2,0,0.3l-0.4,0.4l-0.6,1.4l-0.5,0.8v0.3c0,0.2-0.1,0.5-0.4,0.6l-0.1,0.5
		l-0.2,0.1l-0.3,0.4l-0.1,0.3l-0.2,0.1c0,0.1,0,0.2,0.1,0.3l-0.3,0.2l-0.5,0.3l-0.2,0.3l-0.5,0.5c-0.5,0.9-1.1,1.4-1.7,1.4
		c-0.5,0-0.9-0.2-1.3-0.7l0.1,0.2l-0.9-1.3l-0.1-0.3l-0.2-0.1l0-0.6l-0.3-0.3v-0.7l-0.7-1.5l0.1-0.3l-0.2-0.4l-0.1-0.3l-0.1-0.2
		l-0.2-0.5l-0.5-0.4l-0.2-0.9l-0.4-0.3l-0.2-0.3c-0.4-0.1-0.7-0.5-0.7-1.1c0-0.5,0.4-0.9,1.1-1.2c1,0.6,1.5,1.3,1.7,1.9l0.1,0.6
		c0.1,0,0.2-0.1,0.4-0.1v0.2l0.4,0.3L369,53l0.1,0.3l0.2,0.6l0.1,0.1l0,0.2l0.2,0.1v0.4l0.3,1l0.1,0.4l0.4,0.8l0.3,1l0.3,0.3h0.1
		c0.1,0,0.1-0.1,0.2-0.2l0.2-0.1l-0.1-0.2c0.1-0.1,0.1-0.2,0.2-0.2s0.1,0,0.2,0.1c0.1-0.3,0.2-0.5,0.3-0.5c0,0,0,0,0,0.1
		c0.1-0.2,0.2-0.4,0.5-0.5l0.3-0.5l0.2-0.5l0.3-0.2l0.2-0.3l0.1-0.1l-0.1-0.3l0.3-0.1l0.1-0.1c0-0.1,0-0.2,0.1-0.3l0.2-0.5l0.1,0.2
		l0.1-0.1v-0.1c0-0.2,0.1-0.4,0.3-0.6v-0.1l0.2-0.3l0.1-0.6l0.2-0.1l0.3-0.8l0.2-0.3c0.1-0.3,0.2-0.5,0.4-0.6l0.2-0.7l0.2-0.2V49
		h0.1c0.2-0.1,0.4-0.3,0.5-0.6s0.2-0.4,0.3-0.5l0.1-0.1l0.7-0.4L379,48.2z"/>
	<path id="XMLID_13_" class="st10" d="M387.8,58.1c0,0.2-0.2,0.5-0.5,0.8c-0.1,0.3-0.2,0.5-0.4,0.7l-0.2,0l-0.3,0.5l-0.5,0.1
		l-0.5,0.3l-0.3,0.5H385c-0.2,0.1-0.3,0.1-0.5,0.1l-0.2,0.2c-0.1,0-0.1,0-0.2,0c-0.2,0-0.4,0.1-0.7,0.4l-0.4-0.3c-0.1,0-0.2,0-0.3,0
		c-0.2,0-0.4,0-0.6-0.1h-0.4l-0.2-0.1c-0.7-0.1-1.1-0.4-1.2-0.7v-0.1l-0.3-0.2l-0.2-0.4l-0.3-0.2v-0.4l-0.3-1.1v-0.9l0.2-0.4v-0.5
		l0.1-0.4l0-0.2l0.2-0.3l-0.1,0.1c0-0.2,0-0.3,0.1-0.5v-0.1l-0.1-0.6c0-0.3,0.1-0.6,0.4-0.8c0,0,0-0.1,0-0.2c0-0.1,0-0.2-0.1-0.4
		c-0.1-0.2-0.1-0.4-0.1-0.5c0-0.2,0.1-0.4,0.2-0.7c0.1,0.2,0.3,0.3,0.6,0.3h0.1c0-0.1,0.1-0.1,0.2-0.2c0.1-0.4,0.3-0.8,0.6-1.1
		l0.1-0.1c0-0.1,0.1-0.3,0.2-0.6h0.2l0.1-0.1l0.2-0.1c0.1-0.1,0.1-0.2,0.2-0.2c0,0,0.2-0.1,0.6-0.3c0.1-0.1,0.2-0.2,0.3-0.3
		c0.1,0,0.2-0.1,0.3-0.1l0.1-0.2c0.5-0.2,0.8-0.2,0.9-0.2c0.1,0,0.3,0,0.4,0.1l0.1,0l0.2,0.1c0.2,0.2,0.4,0.3,0.6,0.4l0.4,0.3v0.1
		c0.4,0.3,0.6,0.8,0.6,1.3l-0.1,0.3l0.1,0.9l-0.2,0.2l-0.3,0.7l-0.5,0.5l0,0.4c-0.6,0.4-1.1,0.7-1.5,1c-0.2,0.2-0.4,0.4-0.7,0.4
		h-0.1l-0.5,0.3h-0.4l-0.6,0.3l-0.5-0.2h-0.1c0,0.1-0.1,0.3-0.1,0.6l-0.2,0.2l0,0.3l-0.2,0.4c0,0.4,0.1,0.7,0.1,0.8l-0.1,0.1
		c0,0.2,0,0.4,0,0.5c0,0,0,0,0,0.1c0,0,0,0.1,0,0.1c0,0.1,0.1,0.3,0.2,0.3c0.1,0.2,0.1,0.3,0.3,0.4l0.2,0.2l0.6,0.2v0.1l0.2,0.1h0.9
		l0.5-0.1l0.3-0.2l0.2-0.1l0.3-0.4l0.1,0l0.7-0.2c0.1-0.1,0.2-0.2,0.3-0.3l0.1-0.1c0.3-0.1,0.5-0.2,0.6-0.5c0.2-0.2,0.6-0.4,0.9-0.4
		h0.1C387.6,57.5,387.8,57.8,387.8,58.1z M385.2,50.6c0-0.1,0-0.2-0.1-0.3l-0.1,0l-0.1,0c0,0-0.1,0-0.1,0c0,0-0.1,0-0.1,0
		c0,0,0,0-0.1,0c0,0-0.1,0-0.1,0l-0.3,0.2l-0.2,0l-0.1,0.1l-0.4,0.6l-0.3,0.2l-0.4,0.7l-0.2,0.2c-0.1,0.3-0.2,0.5-0.4,0.8l-0.1,0.2
		c0.2-0.1,0.4-0.2,0.7-0.2l0.2-0.1l0.1-0.2l0.4,0l0.2-0.3h0.2l0.3,0.1l0.1-0.4h0.2v-0.3l0.3-0.1l0.1-0.1l0.1-0.2l0.3-0.5
		C385.2,50.8,385.2,50.7,385.2,50.6z"/>
	<path id="XMLID_250_" class="st10" d="M412.6,47.1c0,0.1-0.1,0.2-0.3,0.4c-0.2,0.2-0.3,0.3-0.3,0.5c-0.1,0.2-0.2,0.3-0.4,0.4
		c-0.1,0.2-0.2,0.3-0.5,0.4l-0.5,0.4l-0.3,0.6H410c-0.1,0.2-0.3,0.3-0.5,0.5c-0.1,0-0.2,0.1-0.4,0.2l-0.5,0.6l-0.7,0.5l-0.2,0.1
		l-0.2,0.4l-0.6,0.3l-0.3,0.3l-0.3,0.7l-1,1.1l-0.3,0.5l-0.1,0.3l0.2,0.3l-0.2,0.5l0.1,0.4l-0.2,0.6l0.1,0.4l0.2,0.7
		c-0.3,0.3-0.4,0.6-0.4,0.9c0,0.1,0,0.3,0.1,0.5c0,0.2,0.1,0.4,0.1,0.5l-0.2,1.1l0.1,0.7l-0.1,0.2l0.2,0.9l-0.2,0.3l0.2,0.5
		l-0.2,0.2l0.1,0.2c0.1,0.1,0.1,0.2,0.1,0.3v0.1l-0.2,0.7l0.2,0.7l-0.2,0.5l0.2,0.3V67c0,0.7-0.1,1.2-0.3,1.5
		c-0.2,0.3-0.6,0.4-1.1,0.4l-0.2-1.2l-0.2-0.8l0-0.5l-0.3-0.2l0.2-0.5l-0.1-0.4l0.1-0.8l-0.2-0.8l0.1-0.7c0,0,0-0.1,0-0.2
		c0-0.1,0-0.2,0-0.2c0-0.1,0-0.1,0-0.2c0-0.1,0-0.1,0-0.2l-0.1-1.2l0.1-0.6l-0.1-0.6l0.2-1l-0.2-0.4l0.1-0.6l0-0.5l-0.2-0.5
		c0.1-0.3,0.2-0.6,0.2-0.7c0-0.1,0-0.2-0.1-0.2l-0.1-0.5l-0.2-0.4l-0.3-0.2l-0.2-0.2c-0.3-0.2-0.7-0.5-1.2-1.1l-0.4-0.3l-0.4-0.7
		l-1-0.9l-0.2-0.4l-0.4-0.5l-0.8-0.6v-0.3l-0.4-0.3c-0.1-0.4-0.3-0.7-0.5-0.7c-0.7-0.4-1.1-1-1.1-1.8l0.1-0.7h0.3
		c0.1-0.1,0.3-0.2,0.6-0.2c0.3,0,0.6,0.1,1.1,0.2l0.2,0.4L398,47l0.5,0.7l0.7,0.5l0,0.2l0.5,0.9l0.4,0.3l1.4,2l0.5,0.6
		c0.6,0.6,1.1,1.2,1.5,1.6v-0.1c0-0.2,0.1-0.4,0.3-0.7l0,0.1c0.1-0.3,0.3-0.5,0.4-0.7c0.1-0.2,0.2-0.4,0.4-0.6
		c0-0.1,0.2-0.3,0.5-0.6l0.2-0.1l0.1-0.1c0.2-0.5,0.5-0.7,0.9-0.7l0.1,0.1l0.2-0.4c0.2-0.1,0.3-0.1,0.3-0.1c0.2-0.2,0.3-0.3,0.4-0.5
		l0.2-0.3c0.3-0.4,0.7-0.6,1.1-0.7v-0.3l0.2-0.2l0.3-0.2l0.2-0.5c0.1,0.1,0.1,0.1,0.2,0.1c0.2,0,0.3-0.2,0.4-0.6l0.8-0.3L411,46
		l0.7,0.1l0.5-0.2l0.2,0.5C412.5,46.7,412.6,46.9,412.6,47.1z"/>
	<path id="XMLID_252_" class="st10" d="M423,54.1l-0.2,0.5c0,0.5,0,0.8-0.1,1.1l-0.2,0.3v0.3l-0.1,0.2l-0.1,0.4l-0.3,0.3l-0.2,0.7
		l-0.2,0.1l-0.1,0.3l-0.3,0.2l-0.2,0.4l-0.3,0.2l0,0.3l-0.5,0.2c-0.2,0.3-0.5,0.5-0.8,0.6l-0.1,0c-0.2,0.4-0.6,0.5-1,0.5
		c-0.2,0.1-0.4,0.2-0.6,0.2l-0.3,0.2l-0.3,0.1l-0.3,0.3h-0.3l-0.4,0.1l-0.4-0.2l-1.1-0.1l-0.4-0.6l-0.6-0.6l0.1-0.4l-0.4-0.9
		l0.1-0.3l-0.1-0.6l0.1-0.4c0-0.2,0-0.4,0-0.5c0-0.3,0.1-0.6,0.3-0.7c0-0.2,0.1-0.5,0.4-0.9h0.1l-0.1-0.2l0.1-0.4v-0.4
		c0.1-0.2,0.2-0.3,0.2-0.3l-0.1-0.4v-0.1c0.1-0.2,0.2-0.5,0.2-0.8l0.5-0.8c0.1-0.1,0.1-0.1,0.2-0.2l0-0.1h0.1l0.4-0.4l0-0.6l0.7-0.2
		c0.2-0.2,0.4-0.4,0.5-0.8h0.3c0.2-0.1,0.4-0.2,0.5-0.2s0.3,0,0.4,0.1l0.3,0l0.7-0.3l0.4,0.3l0.3,0.2h0.2l0.4,0.2h0.2
		c0.2,0.2,0.5,0.5,0.8,0.9l0.1,0.1l0.2,0.1l0.5,0.7l0.5,1.2v0.3L423,54.1z M421.3,54.8l0-0.1c-0.1-0.1-0.2-0.3-0.2-0.4l0.1-0.1
		l-0.2-0.5l0.1-0.5l-0.1-0.1c-0.2-0.2-0.3-0.3-0.4-0.4c-0.2-0.1-0.2-0.2-0.2-0.5l-0.2,0l-0.3-0.5l-0.2-0.2l-0.5-0.2l-0.2-0.1
		c-0.1,0-0.2,0-0.2-0.1l-0.5,0.6l-0.3,0.7l-0.5,0.3l-0.1,0.3l-0.3,0.1l-0.1,0.7l-0.3,0.2c-0.1,0.2-0.1,0.5-0.1,0.7l-0.4,0.4l0.1,0.1
		c0,0.2-0.1,0.4-0.3,0.5c-0.1,0.2-0.1,0.3-0.2,0.5v0.2v0.1v0.3l-0.3,0.7l0.1,0.1v0.7l-0.1,0.4l0,0.4l0.2,0.3l0.4,0.1l0.1,0.1h0.2
		h0.7l0.1-0.3h0.1c0.1,0,0.2,0,0.2,0.1l0.2-0.1l0.2,0.1L418,59l0.1-0.1l0.2-0.1c0.1-0.2,0.4-0.4,0.9-0.6l0.1-0.1l0.5-0.4l0.3-0.4
		l0.4-0.2l0-0.1l0.1-0.3v-0.3l0.3-0.3l0.1-0.2l0.1-0.2c-0.1-0.2-0.1-0.4-0.1-0.4c0-0.2,0.1-0.3,0.2-0.5L421.3,54.8z"/>
	<path id="XMLID_255_" class="st10" d="M439.4,58.7c0,0.2-0.2,0.5-0.5,0.8l-0.2,0.1l-0.2,0.2l-0.5,0.1c-0.1,0.1-0.2,0.2-0.3,0.2
		c0,0,0,0-0.1,0c0,0-0.1,0-0.1,0c-0.4,0.2-0.8,0.3-1.4,0.3h-0.2l-0.7-0.1L435,60l-1-0.8l-0.2-0.7l-0.4-0.3c0.1-0.1,0.1-0.2,0.1-0.3
		c0-0.1-0.1-0.3-0.2-0.5l0.1-0.6v-0.1c0-0.2-0.1-0.5-0.2-0.8l0.2-0.8l-0.3,0.7l-0.4,0.1l-0.1,0.5c-0.1,0.1-0.3,0.1-0.5,0.1l-0.3,0.6
		l-0.3,0.4c-0.1,0.2-0.3,0.2-0.4,0.3l-0.1,0.1l-0.9,1H430l-0.5,0.6l-0.5,0.2l-0.3,0.3l-0.6,0.2l-0.9,0.3l-0.5-0.3
		c-0.3,0-0.6-0.2-0.7-0.5l-0.2-0.1c0-0.1,0-0.1,0-0.2c0-0.1,0-0.1,0-0.2l-0.4-0.4l0.1-0.2l-0.3-0.7l0.1-0.1v-0.1c0,0,0-0.1,0-0.2
		c-0.1-0.1-0.1-0.1-0.1-0.1c0-0.2,0-0.4,0.1-0.6l0-0.7l-0.1-0.6c0.1-0.1,0.1-0.3,0.1-0.4c0-0.1,0-0.2-0.1-0.3l0.3-0.2v-0.3l-0.1-0.9
		l0.3-1.7c0-0.3-0.1-0.7-0.2-1.2c0.1-0.6,0.4-0.9,1.1-0.9l0.2,0.1l0.4,0.1l0.5,0.5l-0.2,0.7v1.1l0.1,0.9l-0.2,0.3l0.1,0.2l-0.2,0.4
		v0.3v0.1c0,0.1,0,0.1,0,0.2c0,0.2,0,0.5-0.1,0.7l0.1,0.2l-0.1,0.4l0,0.3l0,0.4c0.1,0.1,0.2,0.2,0.2,0.4c0,0.1-0.1,0.3-0.2,0.4v0.1
		c0.1,0.3,0.1,0.5,0.1,0.6l0.2,0.2c0.1-0.1,0.2-0.2,0.4-0.3c0.1-0.2,0.2-0.3,0.4-0.3v-0.3c0.1,0,0.3,0,0.5-0.1l0.1-0.2l0.4-0.2
		l0.1-0.1c0.1-0.1,0.3-0.2,0.6-0.3v-0.1l0.5-0.4c0.1-0.3,0.3-0.5,0.7-0.7c0.2-0.2,0.3-0.3,0.4-0.3l0.3-0.4v-0.1l0.1-0.1l0.2-0.1
		l0.1-0.4l0.5-0.2l0.1,0l0.2-0.2v-0.2l0.2-0.1c0.1-0.3,0.2-0.5,0.4-0.6l0.4-0.9l0.1-0.5l0.1-0.1h0.1l0.2-0.1l-0.2-0.1
		c0.2-0.3,0.3-0.6,0.4-1l0.8,0l0.6,0.5l0.3,0.4l-0.3,1.1l-0.4,0.5l-0.3,1l-0.3,0.2V54l-0.2,0.3l0.1,0.5l-0.2,0.2l0.1,0.8l0.1,1.2
		h0.1v0.7l0.4,0.4l0.3,0.2l0,0.1c0.1,0,0.3,0.1,0.4,0.1l0.7,0.1l0.4-0.1l0.7-0.3c0.1-0.1,0.3-0.1,0.5-0.1
		C439.2,58,439.4,58.3,439.4,58.7z"/>
</g>
</svg>
